<?xml version="1.0" encoding="iso-8859-1"?>
<!-- Generator: Adobe Illustrator 21.0.0, SVG Export Plug-In . SVG Version: 6.00 Build 0)  -->
<svg xmlns="http://www.w3.org/2000/svg" xmlns:xlink="http://www.w3.org/1999/xlink" version="1.1" id="Capa_1" x="0px" y="0px" viewBox="0 0 512 512" style="enable-background:new 0 0 512 512;" xml:space="preserve" width="150" height="150">
<g>
	<path  d="M445.741,406V189.741C445.741,85.118,360.624,0,256,0S66.259,85.118,66.259,189.741V406H24.261v106h463.479V406H445.741z    M96.259,189.741C96.259,101.66,167.918,30,256,30s159.741,71.66,159.741,159.741V406H96.259V189.741z M457.739,482H54.261v-46   h403.479V482z"/>
	<path d="M167.183,237.318h17.139l21.784,36.681h29.633l-24.987-42.287c2.883-1.602,5.471-3.549,7.769-5.847   c2.295-2.295,4.245-4.885,5.846-7.769c1.602-2.883,2.828-5.952,3.684-9.21c0.854-3.256,1.282-6.647,1.282-10.171   c0-4.698-0.936-9.343-2.803-13.936c-1.87-4.59-4.46-8.702-7.769-12.333c-3.311-3.629-7.235-6.567-11.773-8.81   c-4.54-2.242-9.478-3.364-14.816-3.364h-51.257v113.726h26.269V237.318z M167.183,183.338h23.226c2.988,0,5.767,1.389,8.33,4.165   c2.563,2.778,3.844,6.515,3.844,11.212c0,4.592-1.122,8.356-3.364,11.292c-2.243,2.938-4.913,4.405-8.009,4.405h-24.026V183.338z"/>
	<rect x="248.232" y="160.272" width="26.269" height="113.726"/>
	<path d="M379.175,184.78c-1.87-4.59-4.432-8.702-7.688-12.333c-3.258-3.629-7.155-6.567-11.693-8.81   c-4.54-2.242-9.531-3.364-14.977-3.364h-48.534v113.726h26.269v-36.681h23.065c5.446,0,10.412-1.066,14.896-3.204   c4.485-2.135,8.302-5.018,11.453-8.649c3.148-3.629,5.606-7.741,7.368-12.333c1.762-4.59,2.643-9.396,2.643-14.416   C381.979,194.018,381.042,189.373,379.175,184.78z M352.025,210.408c-2.243,2.67-4.913,4.004-8.009,4.004h-21.464v-31.074h20.503   c1.494,0,2.988,0.295,4.485,0.881c1.494,0.588,2.828,1.521,4.004,2.803c1.174,1.281,2.107,2.883,2.803,4.805   c0.693,1.922,1.041,4.22,1.041,6.888C355.389,203.841,354.268,207.74,352.025,210.408z"/>
	<rect x="140.5" y="300.333" width="231" height="30"/>
</g>















</svg>
